<?xml version="1.0" encoding="UTF-8"?>
<svg id="Layer_1" data-name="Layer 1" xmlns="http://www.w3.org/2000/svg" viewBox="0 0 3400 2000">
  <defs>
    <style>
      .cls-1 {
        fill: #cc6e58;
      }

      .cls-2 {
        fill: #fff;
      }

      .cls-3 {
        fill: #ff443c;
      }

      .cls-4 {
        fill: #c8c1e1;
      }

      .cls-5 {
        fill: #ff8548;
      }

      .cls-6 {
        fill: #020202;
      }

      .cls-7 {
        fill: #ffba41;
      }

      .cls-8 {
        opacity: .3;
      }

      .cls-9 {
        fill: #e08b65;
      }

      .cls-10 {
        fill: #786ab5;
      }

      .cls-11 {
        fill: #f7b686;
      }

      .cls-12 {
        fill: #66192d;
      }

      .cls-13 {
        fill: #060633;
      }

      .cls-14 {
        fill: #553e93;
      }
    </style>
  </defs>
  <path class="cls-4" d="m3190.82,1574.08c0,51.41-334.86,93.08-747.94,93.08s-747.94-41.67-747.94-93.08,334.86-93.09,747.94-93.09,747.94,41.68,747.94,93.09Z"/>
  <g>
    <path class="cls-11" d="m1860.31,1167.42c-20.91-15.81,58.63-86.72,58.57-86.81.17.24,18.15,24.17,128.2,44.06,76.61,13.84,134.62-4.85,177.35-57.14,32.22-39.42,31.18-76.02,34.33-89.16.42-1.75,48.3-8.23,49.61-11.59l28.31,5.18c1.1-2.83,27.49,4.61,27.7,3.73l5.73,25.31c-5.72,23.79-20.15,77.42-65.07,132.4-46.67,57.1-132.51,119.72-276.47,93.7-78.5-14.18-133.81-33.65-168.26-59.69Z"/>
    <g>
      <path class="cls-11" d="m1945.91,1150.98l-4.03.38c-7.52.71-14.26-4.86-14.97-12.38l-6.92-73.28c-.71-7.52,4.87-14.26,12.39-14.97l4.03-.38c7.52-.71,14.26,4.87,14.97,12.39l6.91,73.28c.71,7.52-4.86,14.26-12.39,14.97Z"/>
      <path class="cls-11" d="m1922.09,1095.55h0c-4.5,4.33-11.73,4.19-16.06-.31l-60.3-62.66c-4.33-4.5-4.19-11.73.31-16.07h0c4.5-4.33,11.73-4.19,16.06.31l60.3,62.66c4.33,4.5,4.19,11.74-.31,16.07Z"/>
      <path class="cls-11" d="m1904.25,1189.38s-43.95-21.96-69.6-42c-12.58-9.83,46.72-90.64,63.52-84.49,16.8,6.14,53.4,52.43,53.4,52.43l-47.33,74.06Z"/>
    </g>
    <path class="cls-3" d="m2652.88,934.32s-61.09-108.51-209.8-78.51c-148.71,30-229.86,240.8-189.53,658.31,0,0,236.25-93.02,543.43-18.03,0,0-50.56-404.35-144.1-561.76Z"/>
    <path class="cls-3" d="m2766.31,890.47l-104.53,103.34s-267.97,71.7-342.4,70.84c-74.43-.86-103.73-54.73-103.73-54.73,0,0,62.82-98.52,189.93-143.08,11.94-4.21,24.43-7.91,37.5-11.03,21.94-5.21,44.26-8.22,66.4-9.53,131.58-7.76,256.83,44.19,256.83,44.19Z"/>
    <path class="cls-12" d="m2427.11,955.31l-.13-4.48c79.91-2.28,108.73-70.78,109.01-71.47l4.15,1.69c-.3.74-7.55,18.25-25.12,36.28-16.23,16.65-44.65,36.76-87.91,37.99Z"/>
    <path class="cls-12" d="m2465.18,993.66l-2.37-3.81c.41-.26,41.18-26.14,46.45-72.45l4.45.51c-5.52,48.5-48.11,75.48-48.54,75.75Z"/>
    <rect class="cls-1" x="2254.77" y="1029.09" width="52.11" height="4.49" transform="translate(583.47 2871.12) rotate(-71.64)"/>
    <path class="cls-12" d="m2766.3,890.47c16.71,17.99-9.06,37.64-37.92,66.17-28.86,28.54-58.68,45.18-66.6,37.17-7.92-8.01,9.06-37.63,37.92-66.17,28.86-28.54,58.94-45.42,66.6-37.17Z"/>
    <path class="cls-11" d="m2675.68,994.24s-1.56-20.64,24.64-46.99c15.78-15.87,35.75-26.24,49.14-31.98,7.96-3.41,17.16.42,20.32,8.49l8.38,21.4-39.02,24.88-63.46,24.21Z"/>
    <path class="cls-14" d="m2490.98,1377.02s322.47-173.07,438.05,15.73c85.56,139.75-43.05,269.91-520.12,256.69,0,0-47.15-21.87-35.67-135.31,4.55-44.95,117.73-137.1,117.73-137.1Z"/>
    <path class="cls-14" d="m2490.98,1377.02s-429.49-174.23-514.46-65.31c-97.66,125.18-4.01,337.72,448.71,261.75l55.17-59.33,10.59-137.1Z"/>
    <path class="cls-12" d="m2370.51,1545.33s-79.15,3.19-116.33,21.25c-37.18,18.06-17.33,62.14,58.17,60.96,75.49-1.18,69.76-12.3,69.76-12.3,0,0-14.34-38.7-11.6-69.91Z"/>
    <path class="cls-6" d="m2408.4,1650.16c-52.97-37.43-36.21-135.22-36.03-136.2l.09-.51.49-.18,326.02-117.51.61,1.69-325.53,117.33c-1.24,7.67-14.69,98.53,35.38,133.91l-1.04,1.47Z"/>
    <g>
      <path class="cls-4" d="m1844.66,987.91l-6.66-33.68c202.16-31.67,293.85-20.88,315.2,8.16,72.22-62.29,201.38-25.14,298.21-22.95,5.6,12.54,8.12,28.02,17.69,37.12-21.24,30.3-624.44,11.35-624.44,11.35Z"/>
      <path class="cls-7" d="m2240.2,1444.93c0,5.75-60.32,5.75-60.32,0l-48.03-112.55-12.29-364.91c5.62,4.17,54.48,5.18,60.32,0l68.74,354.85-8.42,122.6Z"/>
      <polygon class="cls-5" points="2179.89 1444.93 1881.78 1444.93 1821.47 967.47 2119.57 967.47 2179.89 1444.93"/>
      <polygon class="cls-7" points="2546.81 1444.93 2524.51 1444.93 2464.2 967.47 2486.5 967.47 2546.81 1444.93"/>
      <polygon class="cls-5" points="2538.31 1444.93 2240.2 1444.93 2179.89 967.47 2477.99 967.47 2538.31 1444.93"/>
      <path class="cls-7" d="m2415.01,1171.15h-143.06c-15.75,0-29.04-10.09-31-23.54h0c-2.33-16.04,12.21-30.21,31-30.21h143.06c15.75,0,29.04,10.09,31,23.54h0c2.33,16.04-12.21,30.21-31,30.21Z"/>
    </g>
    <path class="cls-11" d="m2471.82,1385.32c-26.21,0-5.52-104.54-5.63-104.57.28.09,29.06,8.34,128.84-42.16,69.46-35.16,104.47-85.05,107.02-152.52,1.93-50.87-20.97-79.44-26.38-91.83-.72-1.65,33.57-35.69,32.59-39.16l25.7-12.93c-.83-2.92,24.71-12.9,24.35-13.73l19.84,16.73c9.79,22.43,30.61,73.91,27.93,144.86-2.79,73.69-33.52,175.41-164.04,241.47-71.18,36.02-127.04,53.84-170.22,53.85Z"/>
    <g>
      <path class="cls-11" d="m2468.66,1348.19h0c-.98,6.17-6.83,10.42-13,9.44l-95.81-15.19c-6.17-.98-10.42-6.83-9.44-13h0c.97-6.17,6.83-10.42,13-9.44l95.8,15.19c6.17.98,10.42,6.83,9.44,13Z"/>
      <path class="cls-11" d="m2473.21,1319.46h0c-.98,6.17-6.83,10.42-13,9.45l-107.14-17c-6.17-.98-10.42-6.83-9.44-13h0c.98-6.17,6.83-10.42,13-9.44l107.14,16.99c6.17.98,10.42,6.83,9.44,13Z"/>
      <path class="cls-11" d="m2530.2,1320.58l-2.99,2.73c-5.57,5.1-14.31,4.72-19.41-.85l-49.71-54.29c-5.1-5.57-4.71-14.31.86-19.41l2.98-2.73c5.57-5.1,14.31-4.71,19.41.85l49.71,54.29c5.1,5.57,4.72,14.31-.85,19.41Z"/>
      <path class="cls-11" d="m2477.77,1290.73h0c-.98,6.17-6.83,10.42-13,9.44l-85.89-13.62c-6.17-.98-10.42-6.83-9.44-13h0c.98-6.17,6.83-10.42,13-9.44l85.89,13.62c6.17.98,10.42,6.83,9.44,13.01Z"/>
      <path class="cls-11" d="m2520.12,1376.34s-60.45,23.7-100.21.29c-13.76-8.1,1.98-92.31,19.09-97.53,17.11-5.23,74.22,9.63,74.22,9.63l6.9,87.61Z"/>
      <path class="cls-11" d="m2464.21,1376.73h0c-.98,6.16-6.82,10.4-12.98,9.42l-85.71-13.6c-6.16-.98-10.4-6.81-9.42-12.98h0c.98-6.16,6.81-10.4,12.98-9.42l85.7,13.6c6.16.98,10.4,6.82,9.42,12.98Z"/>
      <path class="cls-11" d="m1862.52,1140.84h0c-.98,6.16-6.82,10.4-12.98,9.42l-14.89-2.88c-6.16-.98-10.4-6.81-9.42-12.98h0c.98-6.16,6.81-10.4,12.98-9.42l14.89,2.88c6.16.97,10.4,6.82,9.42,12.98Z"/>
      <path class="cls-11" d="m1866.95,1118.95h0c-.98,6.16-6.82,10.4-12.98,9.42l-27.25-4.2c-6.16-.98-10.4-6.81-9.42-12.98h0c.98-6.16,6.81-10.4,12.98-9.42l27.24,4.19c6.16.98,10.4,6.82,9.42,12.98Z"/>
      <path class="cls-11" d="m1870.23,1074.3h0c-.98,6.16-6.82,10.4-12.98,9.42l-27.25-4.2c-6.16-.98-10.4-6.81-9.42-12.98h0c.98-6.16,6.81-10.4,12.98-9.42l27.24,4.19c6.16.98,10.4,6.82,9.42,12.98Z"/>
      <path class="cls-11" d="m1870.23,1096.93h0c-.98,6.16-6.82,10.4-12.98,9.42l-33.8-4.99c-6.16-.98-10.4-6.81-9.42-12.98h0c.98-6.16,6.81-10.4,12.98-9.42l33.8,4.98c6.16.98,10.4,6.82,9.42,12.98Z"/>
    </g>
    <path class="cls-9" d="m2721.99,1237.04c-1.6,0-3.1-.37-4.45-1.15-6.81-3.93-6.62-16.59.43-28.81,3.26-5.66,7.51-10.32,11.96-13.14,4.8-3.04,9.34-3.63,12.78-1.64,6.81,3.93,6.62,16.59-.43,28.81-5.66,9.81-13.78,15.93-20.29,15.93Zm16.26-42.29c-1.86,0-4.07.75-6.39,2.22-3.97,2.51-7.79,6.74-10.77,11.9-5.85,10.13-6.65,21.07-1.75,23.9,4.9,2.82,13.97-3.34,19.82-13.47,5.85-10.12,6.65-21.07,1.75-23.9-.76-.44-1.67-.66-2.66-.66Z"/>
    <path class="cls-11" d="m2511.78,846.03c-18.29-.53-32.15-2.39-42.67-14.65l-32.55-37.92-9.47-11.04-55.71-64.91,29.26,75.9,17.57,45.56,5.56,14.42c3.77,9.79-1.21,14.35-4.72,25.8-1.42,4.64-11.02,33.19,13.99,33.37,31.16.22,70.58-35.65,79.23-66.62-.16.03-.32.1-.48.09Z"/>
    <path class="cls-12" d="m2445.61,769.1s61.34-58.39,25.96-107.67c-35.39-49.28-44.23,79.09-44.23,79.09l9.89,29.68,8.38-1.1Z"/>
    <path class="cls-12" d="m2436.25,792.15c.12.43.22.87.31,1.31,5.7,25.6-18.15,45.59-18.15,45.59l-.21-.09-17.57-45.56c7.46-5.54,18.45-12.23,26.45-10.99,4.18.65,7.54,3.46,9.17,9.73Z"/>
    <path class="cls-11" d="m2306.38,760.43c-13.83-45.63,5.63-91.92,43.47-103.39,37.84-11.47,79.73,16.22,93.57,61.85,13.83,45.63-5.63,91.92-43.47,103.4-37.84,11.47-79.73-16.22-93.57-61.85Z"/>
    <path class="cls-12" d="m2430.46,712.3s-19.53,14.07-35.91,2.18c-16.38-11.89-27.96-23.17-64.62-4.89-36.66,18.27-76.8,10.07-84.21-10.51-7.41-20.58,10.05-36.34,33.08-35.32,23.03,1.02-4.87-11.48,11.15-33.11,16.02-21.63,56.66.65,76.8-10.07,20.14-10.72,91.9-20.04,104.81,40.85l-41.1,50.86Z"/>
    <path class="cls-11" d="m2445.79,724.49c-4.71,7.2-13.74,9.62-20.18,5.42-6.43-4.21-7.83-13.46-3.12-20.66,4.71-7.2,13.74-9.62,20.18-5.42,6.43,4.21,7.83,13.46,3.12,20.66Z"/>
    <path class="cls-2" d="m2286.22,691.96c-1.36,0-2.68-.14-3.94-.46-8.24-2.07-10.56-6.35-9.98-9.66.67-3.81,5.33-7.46,12.68-6.72,10.93,1.1,16.92-2.54,16.97-2.57l1.43,2.26c-.27.17-6.74,4.18-18.67,2.97-5.45-.55-9.32,1.92-9.78,4.52-.48,2.72,2.59,5.25,8,6.61,14.12,3.54,38.51-18.19,38.75-18.41l1.79,1.99c-.96.86-21.86,19.47-37.26,19.47Z"/>
    <path class="cls-2" d="m2349.55,640.98c-14.88,0-28.23-6.38-29.4-7.71l2.01-1.76-1.01.88.94-.95c1.36,1.14,23.18,11.6,41.84,4.36,6.24-2.42,11.71-5.29,17.01-8.06,10.84-5.68,20.21-10.58,30.91-8.52l-.51,2.62c-9.78-1.89-18.76,2.82-29.16,8.26-5.36,2.81-10.9,5.71-17.28,8.18-5.01,1.94-10.27,2.69-15.35,2.69Z"/>
    <path class="cls-2" d="m2453.03,658.27c-3.94,0-11.23-6.09-13.14-9.94-1.39-2.82.04-4.12.73-4.54,5.37-3.35,13.13,7.11,14.63,9.24l.14.19.06.23c.87,3.25-.5,4.3-1.4,4.64-.3.12-.65.17-1.02.17Zm-10.1-12.45c-.33,0-.64.08-.9.24-.12.24.13,1.69,2.84,4.41,3.62,3.64,7.39,5.39,8.21,5.14-.03-.03.05-.36-.15-1.23-2.73-3.8-7.35-8.56-10-8.56Z"/>
    <path class="cls-12" d="m2875.71,1501.64c-5.33,0-10.48-1.34-15.08-4-7.86-4.54-13.18-12.35-14.99-21.99-1.79-9.54.09-19.76,5.29-28.75,10.78-18.67,32.67-26.29,48.8-16.97,16.13,9.31,20.48,32.08,9.7,50.75-5.19,9-13.1,15.73-22.26,18.95-3.83,1.35-7.69,2.02-11.46,2.02Zm8.93-72.1c-11.57,0-23.61,7.04-30.61,19.15-4.77,8.26-6.49,17.59-4.86,26.29,1.61,8.6,6.32,15.54,13.25,19.54,6.94,4,15.3,4.61,23.55,1.71,8.35-2.94,15.57-9.1,20.34-17.36,9.79-16.95,6.02-37.51-8.39-45.83-4.11-2.37-8.66-3.5-13.28-3.5Z"/>
    <path class="cls-13" d="m2361.15,741.91c-.44-.06-.84-.32-1.07-.73-.39-.7-.14-1.58.56-1.97.41-.23,9.47-6.45,19.17,1.78.61.52.72,1.42.21,2.04-.51.62-1.33.57-2.04.21-7.18-3.6-15.58-1.68-15.92-1.49-.28.16-.6.21-.9.17Z"/>
    <path class="cls-13" d="m2374.56,756.28c.55,3.42-1.02,6.51-3.5,6.91-2.48.4-4.94-2.05-5.48-5.47-.55-3.42,1.02-6.52,3.5-6.91,2.48-.4,4.94,2.05,5.48,5.47Z"/>
    <path class="cls-13" d="m2310.46,760.12c-.33.08-.7-.02-1.01-.33-.52-.53-.65-1.43-.3-2.02.21-.35,4.43-9.09,14.18-4.57.61.28,1,1.09.86,1.84-.14.74-.74.96-1.37.86-6.34-1.02-11.6,3.49-11.78,3.78-.15.24-.35.39-.58.45Z"/>
    <path class="cls-13" d="m2328.65,768.22c1.81,2.95,1.54,6.41-.6,7.72-2.14,1.31-5.35-.02-7.16-2.97-1.81-2.95-1.54-6.41.61-7.72,2.14-1.31,5.35.02,7.15,2.97Z"/>
    <g>
      <path class="cls-6" d="m2370.17,804.58c-5.1,0-8.69-.87-8.78-.9-.54-.14-.87-.69-.73-1.23.14-.54.69-.87,1.23-.73,1,.25,24.62,5.96,36.25-14.38.28-.48.9-.65,1.38-.38.49.28.65.89.38,1.38-7.82,13.69-20.99,16.23-29.72,16.23Z"/>
      <path class="cls-6" d="m2401.96,791.9c-.42,0-.82-.27-.96-.69-.47-1.4-1.84-3.53-5.77-5.76-.15-.08-.25-.14-.29-.17-.47-.31-.59-.94-.28-1.4.31-.46.93-.59,1.4-.29l.18.1c3.6,2.05,5.85,4.37,6.68,6.88.18.53-.11,1.1-.64,1.28-.11.04-.21.05-.32.05Z"/>
    </g>
    <path class="cls-2" d="m2320.49,817.13c-.98,0-1.97-.07-2.98-.2-10.75-1.44-21.91-10.45-29.87-24.1-12.95-22.21-13.53-50.05-1.29-62.07,4.54-4.45,10.33-6.35,16.76-5.49,10.74,1.44,21.91,10.45,29.87,24.1,12.96,22.21,13.53,50.05,1.29,62.07-3.82,3.75-8.54,5.69-13.78,5.69Zm-20.33-89.04c-4.45,0-8.46,1.64-11.71,4.82-11.32,11.11-10.52,37.31,1.78,58.4,7.5,12.85,17.84,21.31,27.67,22.63,5.47.74,10.4-.87,14.25-4.65,11.32-11.11,10.52-37.31-1.78-58.4h0c-7.5-12.85-17.84-21.31-27.67-22.63-.86-.12-1.71-.17-2.54-.17Z"/>
    <g class="cls-8">
      <path class="cls-2" d="m2405.91,716.75c10.49,22.08,7.59,48.95-6.48,60.01-14.06,11.06-33.97,2.12-44.45-19.96-10.49-22.08-7.59-48.95,6.47-60.01,14.06-11.06,33.97-2.12,44.45,19.96Z"/>
    </g>
    <g class="cls-8">
      <path class="cls-2" d="m2334.03,751.15c10.52,22.19,9.1,49.11-3.18,60.13-12.28,11.02-30.77,1.97-41.29-20.22-10.52-22.19-9.1-49.11,3.18-60.13,12.28-11.02,30.77-1.97,41.29,20.22Z"/>
    </g>
    <path class="cls-2" d="m2383.69,782.71c-2.03,0-4.09-.25-6.19-.74-11.24-2.66-21.47-12.05-28.05-25.77-11.33-23.58-7.9-52.53,7.64-64.55,6.27-4.85,13.69-6.44,21.45-4.61,11.24,2.66,21.47,12.05,28.06,25.76h0c11.33,23.58,7.9,52.53-7.64,64.55-4.58,3.54-9.77,5.35-15.26,5.35Zm-11.31-93.38c-4.84,0-9.42,1.59-13.45,4.71-14.47,11.19-17.51,38.49-6.76,60.86,6.1,12.7,15.83,21.72,26.03,24.14,6.84,1.62,13.38.22,18.91-4.06,14.47-11.19,17.51-38.5,6.76-60.86h0c-6.1-12.7-15.83-21.72-26.03-24.14-1.85-.44-3.67-.65-5.46-.65Z"/>
    <path class="cls-2" d="m2332.24,760.61c-.61,0-1.21-.19-1.73-.59-1.22-.95-1.45-2.7-.5-3.93.3-.39,7.62-9.64,23.22-10.03,1.55-.06,2.84,1.19,2.88,2.74.04,1.55-1.19,2.84-2.74,2.88-12.8.32-18.67,7.55-18.91,7.86-.56.7-1.38,1.07-2.22,1.07Z"/>
  </g>
  <g>
    <path class="cls-14" d="m2062.46,696.57c0,7.38-55.81,13.36-124.67,13.36s-124.42,10.67-124.42,3.29c0-52.78,55.56-102.32,124.42-102.32s124.67,38.35,124.67,85.67Z"/>
    <path class="cls-10" d="m2062.22,697.32c.32,5.15-26.59,11.36-66.29,16.14-2.29.27-4.63.54-7,.81-15.34,1.71-32.36,3.2-50.27,4.34-15.21.98-29.8,1.61-43.3,1.93-4.9.13-9.64.21-14.23.24-39.94.32-67.41-2.4-67.74-7.55-.28-4.45,19.72-9.68,50.73-14.08,2.47-.35,5-.69,7.61-1.04,13.12-1.72,27.9-3.29,43.73-4.59,6.99-.58,14.16-1.12,21.5-1.58,5.11-.33,10.18-.62,15.12-.86,20.96-1.07,40.36-1.48,56.83-1.27.4,0,.78.01,1.17.01,31.33.42,51.85,3.07,52.14,7.5Z"/>
    <path class="cls-7" d="m2008.9,689.8c-3.64,6.86-8.24,13.13-13.62,18.63-2.02,2.05-4.14,4.01-6.36,5.83-13.89,11.46-31.73,18.35-51.17,18.35-15.56,0-30.09-4.42-42.4-12.08-5.51-3.42-10.59-7.5-15.1-12.12-3.12-3.2-5.99-6.64-8.53-10.32,13.12-1.72,27.9-3.29,43.73-4.59,6.99-.58,14.16-1.12,21.5-1.58,5.11-.33,10.18-.62,15.12-.86,20.96-1.07,40.36-1.48,56.83-1.27Z"/>
    <path class="cls-14" d="m1937.8,619.75h0c-2.96,0-5.35-2.4-5.35-5.35v-87.3c0-2.96,2.4-5.35,5.35-5.35h0c2.96,0,5.35,2.4,5.35,5.35v87.3c0,2.96-2.4,5.35-5.35,5.35Z"/>
    <path class="cls-14" d="m1922.28,613.22c0-8.57,6.95-15.52,15.52-15.52s15.52,6.95,15.52,15.52-6.95,15.52-15.52,15.52-15.52-6.95-15.52-15.52Z"/>
  </g>
  <g>
    <path class="cls-10" d="m3101.35,610.6c-1.8,0-2.86-.1-2.91-.1l.11-1.14c.22.02,22.46,2.04,39.85-13.42l.76.85c-14.01,12.46-31.1,13.81-37.81,13.81Z"/>
    <path class="cls-10" d="m3127.07,623.54c-7.87-1.13-12.83-4.7-15.6-7.49-3.02-3.04-4.16-5.79-4.2-5.9l1.06-.43c.04.11,4.5,10.62,18.91,12.69l-.16,1.13Z"/>
    <path class="cls-4" d="m2755.49,776.25h-41.54l-4.34-164.16s6.34-3.05,16.22-3.98c13.39-1.26,25.54-.75,25.54-.75l4.11,168.89Z"/>
    <polygon class="cls-10" points="2862.01 776.25 2755.49 776.25 2751.38 607.37 2862.01 612.09 2862.01 776.25"/>
    <path class="cls-4" d="m2823.36,776.25h-31.02v-203.69s6.42-1.81,14.89-2.49c9.32-.75,21.35,0,21.35,0l-5.21,206.18Z"/>
    <polygon class="cls-10" points="2902.91 776.25 2823.36 776.25 2828.57 570.08 2902.91 572.56 2902.91 776.25"/>
    <path class="cls-4" d="m2897.75,776.25h-23.35l-32.43-153.32s3.95-1.02,9.91-1.3c6.92-.32,13.44,1.3,13.44,1.3l32.43,153.32Z"/>
    <polygon class="cls-14" points="2957.63 776.25 2897.75 776.25 2865.32 622.93 2924.7 631.4 2957.63 776.25"/>
    <path class="cls-10" d="m2710.31,633.66l-.28-1.08c.09-.02,8.96-2.31,18.64-1.74,9.5.56,22.45-2.55,22.58-2.58l.26,1.09c-.13.03-13.25,3.19-22.91,2.61-9.5-.56-18.2,1.68-18.29,1.7Z"/>
    <path class="cls-10" d="m2792.42,588.7l-.16-1.11c.22-.03,21.79-3.17,35.98,0l-.24,1.09c-13.99-3.13-35.36-.02-35.58,0Z"/>
    <path class="cls-10" d="m2827.61,599.61c-11.65-5.17-35-3.26-35.23-3.24l-.09-1.11c.97-.08,23.86-1.95,35.78,3.34l-.45,1.02Z"/>
    <path class="cls-10" d="m2792.43,750.75l-.18-1.11c.87-.14,21.41-3.34,31.94.02l-.34,1.07c-10.27-3.28-31.21-.01-31.42.02Z"/>
    <path class="cls-10" d="m2792.41,756.34l-.15-1.11c.2-.03,19.99-2.59,31.73,0l-.24,1.09c-11.55-2.56-31.15-.02-31.35,0Z"/>
    <path class="cls-14" d="m2845.7,640.55l-.23-1.09c.61-.13,15.12-3.16,23.66.02l-.39,1.05c-8.25-3.07-22.89,0-23.04.02Z"/>
    <path class="cls-14" d="m2846.67,645.23l-.19-1.1c.56-.1,13.9-2.4,23.52,0l-.27,1.09c-9.39-2.35-22.92-.02-23.06,0Z"/>
    <path class="cls-14" d="m2868.66,749.26l-.18-1.1c.58-.1,14.3-2.32,23.58,0l-.27,1.09c-9.06-2.28-22.98-.01-23.12,0Z"/>
    <path class="cls-14" d="m2893.06,755.18c-11.69-2.51-22.97-.03-23.08,0l-.25-1.09c.12-.03,11.63-2.56,23.56,0l-.23,1.09Z"/>
    <g>
      <path class="cls-14" d="m3112.65,739.03s-.76,1.96-2.41,5.21c-.05.08-.09.18-.14.27t-.01.02c-2.9,5.63-8.42,14.91-17.25,24.44-3.02,3.26-7.1,5.79-11.9,7.68h0l-.1.04c-1.03.4-2.08.77-3.17,1.11h0c-15.45,4.87-36.66,3.83-53.32-1.47h0l-2.87-.97h0c-1.43-.51-2.81-1.06-4.15-1.64-4.31-1.86-7.82-4.21-10.66-6.81-.36-.33-.71-.67-1.06-1.01-11.55-11.43-11.35-26.87-11.35-26.87h118.41Z"/>
      <path class="cls-10" d="m3116.45,715.68v16.9c0,10.45-28.56,18.92-63.8,18.92s-63.8-8.47-63.8-18.92v-16.9c0-5.31,16.45-9.85,39.78-11.73,7.42-.6,15.53-.94,24.02-.94,35.24,0,63.8,5.67,63.8,12.67Z"/>
      <path class="cls-14" d="m3116.45,715.68c0,1.02-.6,2.01-1.74,2.96-6.69,5.57-31.93,9.72-62.06,9.72-8.43,0-16.5-.33-23.87-.93-23.41-1.88-39.93-6.43-39.93-11.75s16.45-9.85,39.78-11.73c7.42-.6,15.53-.94,24.02-.94,35.24,0,63.8,5.67,63.8,12.67Z"/>
      <g>
        <path class="cls-10" d="m3056.5,540.63c-6.12,3.99-9.08,3.02-10.49.35-1.41-2.67-.73-6.02,5.39-10.01,11.15-7.27,19.09-5.96,19.09-5.96,0,0-2.68,8.24-13.99,15.62Z"/>
        <path class="cls-10" d="m3056.19,591.74c-4.63,5.98-7.71,6.12-9.82,4.11-2.11-2.02-2.44-5.43,2.19-11.41,8.43-10.89,16.32-12.51,16.32-12.51,0,0-.13,8.76-8.69,19.81Z"/>
        <g>
          <path class="cls-10" d="m3053.36,724.77l-1.34-.13c.02-.23,1.71-23.32-5.28-57.15-6.44-31.21-21.8-78.21-58.36-124.85l1.01-.98c36.76,46.9,52.2,94.17,58.67,125.56,7.02,34.04,5.31,57.31,5.29,57.55Z"/>
          <path class="cls-10" d="m3025.4,600.55l-1.13-.8c26.31-45.66,10.45-101.09,10.29-101.65l1.28-.46c.17.56,16.22,56.65-10.44,102.92Z"/>
          <path class="cls-10" d="m3005.18,576.32c-13.64,0-23.95-7.59-24.07-7.68l.75-1.24c.13.1,13.35,9.8,29.47,6.88l.22,1.47c-2.18.4-4.31.57-6.37.57Z"/>
          <path class="cls-10" d="m3051.1,691.13c-27.59-3.49-49.95-18.44-66.46-44.44-.57-.9-1.11-1.75-1.27-1.9,0,0,.05.05.14.08l.42-1.41c.38.14.61.5,1.81,2.38,16.28,25.64,38.32,40.38,65.51,43.82l-.15,1.48Z"/>
          <path class="cls-10" d="m3012.08,675.05l-1.3-.39c4.77-19.56-6.97-48.32-7.09-48.61l1.22-.62c.03.07,3.05,7.43,5.43,17.15,2.2,9.01,4.29,21.95,1.73,32.47Z"/>
          <path class="cls-10" d="m2987.49,534.31c7.11,7.13,7.71,11.1,5.85,13.4-1.86,2.3-5.49,2.04-12.59-5.09-12.95-12.98-15.83-23.41-15.83-23.41,0,0,9.44,1.93,22.58,15.1Z"/>
          <path class="cls-10" d="m2984.71,563.82c8.71,4.41,10.36,8.01,9.21,10.82-1.15,2.81-4.68,3.78-13.39-.63-15.86-8.04-21.44-17.01-21.44-17.01,0,0,9.52-1.33,25.62,6.83Z"/>
          <path class="cls-10" d="m3007.7,621.2c3.25,7.01,2.21,10.25-.26,11.66-2.47,1.42-5.44.48-8.69-6.53-5.92-12.77-4.31-21.51-4.31-21.51,0,0,7.25,3.42,13.26,16.38Z"/>
          <path class="cls-10" d="m3018.91,552.54c1.62,7.68-.1,10.54-2.8,11.24-2.71.7-5.39-1.01-7-8.69-2.95-13.99.53-22.03.53-22.03,0,0,6.29,5.28,9.28,19.48Z"/>
          <path class="cls-10" d="m3029.85,667.15c-.39,7.88-2.76,10.08-5.53,9.91-2.78-.17-4.91-2.65-4.52-10.53.71-14.35,6.08-20.98,6.08-20.98,0,0,4.7,7.03,3.98,21.59Z"/>
          <path class="cls-10" d="m2990.71,645.36c4.53,6.07,4.14,9.48,1.99,11.45-2.14,1.97-5.23,1.76-9.75-4.31-8.25-11.07-8.35-19.99-8.35-19.99,0,0,7.74,1.62,16.11,12.85Z"/>
          <path class="cls-10" d="m3038.67,491.58c2.23,10.34.7,14.01-2,14.73-2.71.72-5.56-1.77-7.79-12.12-4.06-18.84-1.13-29.26-1.13-29.26,0,0,6.8,7.53,10.92,26.65Z"/>
        </g>
      </g>
      <path class="cls-14" d="m3054.33,726.76s-34.99-145.15-70.07-133.11c-35.08,12.03,42.84,91.49,51.82,134.1l18.25-.98Z"/>
      <g>
        <path class="cls-10" d="m3049.19,720.21s-53.54-116.47-86.95-99.07c-33.41,17.39,54.45,69.18,68.89,103.63l18.06-4.56Z"/>
        <path class="cls-10" d="m3038.86,722.98c-18.3-45.86-66.58-85.87-67.07-86.27l.88-1.33c.49.4,49.08,40.66,67.54,86.93l-1.36.67Z"/>
      </g>
      <path class="cls-4" d="m3150.67,637.86c-12.53,17.92,9.4,41.3-11.63,52.75-21.05,11.44-20.39,7.7-22.44,23.92,0,0,.33,2.48-1.88,4.11-6.69,5.57-31.93,9.72-62.06,9.72-8.44,0-16.5-.32-23.87-.92-1.83-5.24-3.56-13.88-.15-23.49,1.25-3.53,3.2-7.19,6.08-10.86,15.67-19.9,28.21-15.93,24.63-52.74-3.58-36.83,41.19-20.9,52.38-33.34,11.19-12.44,18.81-26.38,38.95-20.9,20.15,5.48,12.54,33.85,0,51.75Z"/>
      <g>
        <path class="cls-10" d="m3062,729.69l-1.29-.41c.16-.63,17.35-64.13,95.17-140.02l.89,1.12c-77.53,75.61-94.6,138.69-94.77,139.32Z"/>
        <path class="cls-10" d="m3085.73,649.68c-18.35-.73-26.46-7.33-26.79-7.61l.81-1.19c.08.07,8.15,6.6,26.04,7.32l-.05,1.49Z"/>
        <path class="cls-10" d="m3096.84,660.34c-7.28-3.03-13.25-11.59-17.28-24.76-3.01-9.86-3.9-18.97-3.91-19.06l1.33-.16c.03.35,3.58,35.62,20.32,42.58l-.47,1.4Z"/>
        <path class="cls-10" d="m3116.23,638.92c-2.12,0-3.36-.13-3.42-.13l.13-1.49c.26.03,26.39,2.67,46.82-17.53l.89,1.11c-16.46,16.27-36.54,18.03-44.43,18.03Z"/>
        <path class="cls-10" d="m3146.46,655.82c-9.25-1.48-15.07-6.14-18.33-9.78-3.55-3.97-4.88-7.56-4.94-7.71l1.24-.56c.05.14,5.29,13.86,22.22,16.58l-.19,1.48Z"/>
        <path class="cls-10" d="m3109.99,709.55c-20,0-34.51-13.66-34.67-13.82l.88-1.13c.18.17,18.15,17.06,41.47,12.75l.22,1.47c-2.71.5-5.35.72-7.9.72Z"/>
        <path class="cls-10" d="m3090.14,704.53l-1.14-.79c3.99-7.1,13.29-16.64,34.96-21.76,12.88-3.05,24.24-3.08,24.35-3.08v1.49c-.45,0-44.77.3-58.17,24.15Z"/>
      </g>
    </g>
    <polygon class="cls-10" points="3162.94 796.07 2703.94 800.58 2703.94 773.68 3158.87 773.68 3162.94 796.07"/>
  </g>
</svg>